<svg xmlns="http://www.w3.org/2000/svg" viewBox="0 0 100 100"><path fill="#e1ae31" fill-rule="evenodd" d="M37.88,25.87L38.36,25.41L43.79,20.19L51.83,18.67L56.06,16.16L67.11,16.16L73.89,18.18L80.28,20.56L80.89,21.33L84.53,28.15L83.42,35.81L90.30,39.51L92.00,47.04L84.43,51.15L83.99,60.03L80.61,65.47L58.80,55.79L40.82,50.77L24.66,52.76L18.77,47.07L17.75,41.20L36.41,30.98L37.88,25.87ZM74.53,81.02L70.33,83.84L58.75,70.44L58.02,66.07L66.98,65.27L77.04,71.32L76.48,76.82L74.53,81.02ZM34.89,81.03L14.51,81.04L10.15,79.21L8.00,75.32L15.22,68.26L42.70,58.54L35.83,68.76L34.89,81.03Z"/></svg>